<svg width="102" height="102" viewBox="0 0 102 102" fill="none" xmlns="http://www.w3.org/2000/svg">
  <path
    d="M20.9173 50.997C20.9173 49.8021 21.392 48.6562 22.2368 47.8114C23.0817 46.9665 24.2276 46.4918 25.4225 46.4918H46.4044V25.5099C46.4044 24.315 46.8791 23.1691 47.7239 22.3243C48.5688 21.4794 49.7147 21.0047 50.9096 21.0047C52.1044 21.0047 53.2503 21.4794 54.0952 22.3243C54.9401 23.1691 55.4147 24.315 55.4147 25.5099V46.4918H76.3967C77.5915 46.4918 78.7374 46.9665 79.5823 47.8114C80.4272 48.6562 80.9018 49.8021 80.9018 50.997C80.9018 52.1918 80.4272 53.3377 79.5823 54.1826C78.7374 55.0275 77.5915 55.5021 76.3967 55.5021H55.4147V76.4841C55.4147 77.6789 54.9401 78.8248 54.0952 79.6697C53.2503 80.5146 52.1044 80.9892 50.9096 80.9892C49.7147 80.9892 48.5688 80.5146 47.7239 79.6697C46.8791 78.8248 46.4044 77.6789 46.4044 76.4841V55.5021H25.4225C24.2276 55.5021 23.0817 55.0275 22.2368 54.1826C21.392 53.3377 20.9173 52.1918 20.9173 50.997Z"
    fill="#C9C9C9" />
  <path fill-rule="evenodd" clip-rule="evenodd"
    d="M22.7796 1.55454C41.4757 -0.518179 60.3437 -0.518179 79.0398 1.55454C90.0143 2.77994 98.8744 11.4238 100.16 22.4584C102.382 41.4221 102.382 60.5779 100.16 79.5416C98.8684 90.5762 90.0083 99.2141 79.0398 100.445C60.3437 102.518 41.4757 102.518 22.7796 100.445C11.805 99.2141 2.9449 90.5762 1.65944 79.5416C-0.553146 60.5782 -0.553146 41.4218 1.65944 22.4584C2.9449 11.4238 11.811 2.77994 22.7796 1.55454ZM78.0427 10.5048C60.0092 8.50583 41.8101 8.50583 23.7767 10.5048C20.4383 10.8751 17.3223 12.3601 14.9321 14.7199C12.5418 17.0796 11.0169 20.1763 10.6036 23.5096C8.46719 41.7763 8.46719 60.2297 10.6036 78.4964C11.0181 81.8286 12.5436 84.9239 14.9338 87.2825C17.3239 89.641 20.4392 91.1252 23.7767 91.4952C41.6591 93.4895 60.1602 93.4895 78.0427 91.4952C81.379 91.1239 84.493 89.6392 86.8819 87.2808C89.2709 84.9223 90.7955 81.8277 91.2097 78.4964C93.3462 60.2297 93.3462 41.7763 91.2097 23.5096C90.7942 20.1794 89.2691 17.0862 86.8802 14.7289C84.4914 12.3717 81.3781 10.8879 78.0427 10.5168"
    fill="#C9C9C9" />
</svg>