<svg width="35" height="35" viewBox="0 0 35 35" fill="none" xmlns="http://www.w3.org/2000/svg">
<path d="M0 17.25C0 7.72309 7.72309 0 17.25 0C26.7769 0 34.5 7.72309 34.5 17.25C34.5 26.7769 26.7769 34.5 17.25 34.5C7.72309 34.5 0 26.7769 0 17.25Z" fill="#1F1F1F"/>
<path d="M23.0639 24.2982C24.149 24.2982 25.0285 23.4186 25.0285 22.3336C25.0285 21.2486 24.149 20.369 23.0639 20.369C21.9789 20.369 21.0994 21.2486 21.0994 22.3336C21.0994 23.4186 21.9789 24.2982 23.0639 24.2982Z" fill="white"/>
<path d="M25.8143 16.4399H23.7188C22.9329 12.9036 19.5276 10.5461 15.9914 11.332C13.372 11.8559 11.2764 13.8204 10.7525 16.4399H9.8357C8.52598 16.4399 7.34723 17.6186 7.34723 18.9284V20.631C7.34723 21.5478 8.13306 22.3336 9.04987 22.3336H9.44278C9.44278 20.631 10.8835 19.1903 12.5861 19.1903C14.2888 19.1903 15.7295 20.631 15.7295 22.3336H19.9206C19.9206 20.631 21.3613 19.1903 23.0639 19.1903C24.7665 19.1903 26.2072 20.631 26.2072 22.3336H26.6001C27.517 22.3336 28.3028 21.5478 28.3028 20.631V19.0593C28.3028 17.6186 27.124 16.4399 25.8143 16.4399ZM12.8481 16.4399C13.5029 13.9514 16.1224 12.6417 18.4799 13.2966C19.9206 13.6895 21.0993 14.8682 21.6232 16.4399H12.8481ZM12.5861 20.3691C11.5383 20.3691 10.6215 21.2859 10.6215 22.3336C10.6215 23.3814 11.5383 24.2982 12.5861 24.2982C13.6339 24.2982 14.5507 23.3814 14.5507 22.3336C14.5507 21.2859 13.6339 20.3691 12.5861 20.3691Z" fill="white"/>
</svg>
