<svg width="25" height="25" viewBox="0 0 25 25" fill="none" xmlns="http://www.w3.org/2000/svg">
<path d="M18.0556 16.6667C19.8694 16.6667 21.4139 17.8264 21.9861 19.4444H23.6111C23.9795 19.4444 24.3327 19.5908 24.5932 19.8512C24.8537 20.1117 25 20.465 25 20.8333C25 21.2017 24.8537 21.555 24.5932 21.8154C24.3327 22.0759 23.9795 22.2222 23.6111 22.2222H21.9861C21.6992 23.0355 21.167 23.7397 20.4631 24.2378C19.7591 24.7359 18.9179 25.0034 18.0556 25.0034C17.1932 25.0034 16.352 24.7359 15.6481 24.2378C14.9441 23.7397 14.4119 23.0355 14.125 22.2222H1.38889C1.02053 22.2222 0.667263 22.0759 0.406796 21.8154C0.146329 21.555 0 21.2017 0 20.8333C0 20.465 0.146329 20.1117 0.406796 19.8512C0.667263 19.5908 1.02053 19.4444 1.38889 19.4444H14.125C14.4123 18.6317 14.9447 17.9281 15.6486 17.4306C16.3526 16.9331 17.1935 16.6662 18.0556 16.6667ZM6.94444 8.33333C7.76249 8.33322 8.56246 8.57392 9.24463 9.0254C9.9268 9.47689 10.461 10.1192 10.7806 10.8722L10.8736 11.1111H23.6111C23.9651 11.1115 24.3056 11.2471 24.563 11.4901C24.8204 11.7331 24.9753 12.0652 24.9961 12.4186C25.0168 12.772 24.9018 13.12 24.6746 13.3914C24.4474 13.6629 24.1251 13.8374 23.7736 13.8792L23.6111 13.8889H10.875C10.595 14.681 10.0822 15.3699 9.40379 15.8655C8.7254 16.361 7.91311 16.64 7.0734 16.6658C6.2337 16.6916 5.4058 16.4631 4.69823 16.0102C3.99067 15.5573 3.43648 14.9011 3.10833 14.1278L3.01389 13.8889H1.38889C1.03489 13.8885 0.6944 13.7529 0.436988 13.5099C0.179577 13.2669 0.0246736 12.9348 0.00392762 12.5814C-0.0168184 12.228 0.0981591 11.88 0.325368 11.6086C0.552577 11.3371 0.874867 11.1626 1.22639 11.1208L1.38889 11.1111H3.01389C3.30123 10.2984 3.83356 9.5948 4.53753 9.0973C5.24149 8.5998 6.08243 8.33288 6.94444 8.33333ZM18.0556 5.7288e-07C19.8694 5.7288e-07 21.4139 1.15972 21.9861 2.77778H23.6111C23.9795 2.77778 24.3327 2.92411 24.5932 3.18458C24.8537 3.44504 25 3.79831 25 4.16667C25 4.53502 24.8537 4.88829 24.5932 5.14876C24.3327 5.40923 23.9795 5.55556 23.6111 5.55556H21.9861C21.6992 6.3688 21.167 7.07301 20.4631 7.57113C19.7591 8.06924 18.9179 8.33674 18.0556 8.33674C17.1932 8.33674 16.352 8.06924 15.6481 7.57113C14.9441 7.07301 14.4119 6.3688 14.125 5.55556H1.38889C1.02053 5.55556 0.667263 5.40923 0.406796 5.14876C0.146329 4.88829 0 4.53502 0 4.16667C0 3.79831 0.146329 3.44504 0.406796 3.18458C0.667263 2.92411 1.02053 2.77778 1.38889 2.77778H14.125C14.4123 1.96506 14.9447 1.26147 15.6486 0.763967C16.3526 0.266466 17.1935 -0.000451334 18.0556 5.7288e-07Z" fill="white"/>
</svg>
