<svg width="31" height="27" viewBox="0 0 31 27" fill="none" xmlns="http://www.w3.org/2000/svg">
<path d="M28.6154 0H2.38462C1.75218 0 1.14564 0.251235 0.698438 0.698438C0.251235 1.14564 0 1.75218 0 2.38462V23.8462C0 24.4786 0.251235 25.0851 0.698438 25.5323C1.14564 25.9795 1.75218 26.2308 2.38462 26.2308H28.6154C29.2478 26.2308 29.8544 25.9795 30.3016 25.5323C30.7488 25.0851 31 24.4786 31 23.8462V2.38462C31 1.75218 30.7488 1.14564 30.3016 0.698438C29.8544 0.251235 29.2478 0 28.6154 0ZM10.2538 15.7385C10.5068 15.9282 10.6741 16.2106 10.7188 16.5237C10.7635 16.8367 10.682 17.1547 10.4923 17.4077C10.3026 17.6607 10.0201 17.8279 9.70708 17.8726C9.39404 17.9174 9.07605 17.8359 8.82308 17.6462L4.05385 14.0692C3.90577 13.9582 3.78558 13.8142 3.7028 13.6486C3.62002 13.483 3.57692 13.3005 3.57692 13.1154C3.57692 12.9303 3.62002 12.7477 3.7028 12.5822C3.78558 12.4166 3.90577 12.2726 4.05385 12.1615L8.82308 8.58462C9.07605 8.39488 9.39404 8.31342 9.70708 8.35814C10.0201 8.40286 10.3026 8.5701 10.4923 8.82308C10.682 9.07605 10.7635 9.39404 10.7188 9.70708C10.6741 10.0201 10.5068 10.3026 10.2538 10.4923L6.75591 13.1154L10.2538 15.7385ZM19.0307 5.09712L14.2615 21.7894C14.2208 21.9426 14.1501 22.0862 14.0533 22.2117C13.9565 22.3373 13.8356 22.4422 13.6978 22.5205C13.5599 22.5988 13.4079 22.6488 13.2505 22.6676C13.0931 22.6864 12.9335 22.6736 12.7811 22.63C12.6287 22.5864 12.4865 22.5129 12.3629 22.4137C12.2392 22.3145 12.1366 22.1916 12.061 22.0523C11.9855 21.9129 11.9384 21.7599 11.9226 21.6022C11.9069 21.4445 11.9227 21.2852 11.9693 21.1337L16.7385 4.44135C16.8302 4.14288 17.0353 3.89227 17.3097 3.74338C17.5841 3.59448 17.906 3.55918 18.2062 3.64506C18.5064 3.73094 18.7609 3.93115 18.9151 4.20266C19.0693 4.47417 19.1108 4.79533 19.0307 5.09712ZM26.9462 14.0692L22.1769 17.6462C21.9239 17.8359 21.606 17.9174 21.2929 17.8726C20.9799 17.8279 20.6974 17.6607 20.5077 17.4077C20.318 17.1547 20.2365 16.8367 20.2812 16.5237C20.3259 16.2106 20.4932 15.9282 20.7462 15.7385L24.2441 13.1154L20.7462 10.4923C20.6209 10.3984 20.5154 10.2807 20.4356 10.1459C20.3558 10.0112 20.3034 9.86208 20.2812 9.70708C20.2591 9.55208 20.2677 9.39423 20.3065 9.24255C20.3454 9.09088 20.4137 8.94834 20.5077 8.82308C20.6016 8.69782 20.7193 8.59229 20.8541 8.51251C20.9888 8.43274 21.1379 8.38028 21.2929 8.35814C21.4479 8.33599 21.6058 8.3446 21.7574 8.38346C21.9091 8.42232 22.0517 8.49067 22.1769 8.58462L26.9462 12.1615C27.0942 12.2726 27.2144 12.4166 27.2972 12.5822C27.38 12.7477 27.4231 12.9303 27.4231 13.1154C27.4231 13.3005 27.38 13.483 27.2972 13.6486C27.2144 13.8142 27.0942 13.9582 26.9462 14.0692Z" fill="#C9C9C9"/>
</svg>
