<svg width="40" height="30" viewBox="0 0 40 30" fill="none" xmlns="http://www.w3.org/2000/svg">
<path opacity="0.5" d="M16.0011 30H24.0007C31.5424 30 35.3142 30 37.6561 27.8025C39.998 25.605 40 22.0706 40 15C40 14.1713 39.996 11.985 39.992 11.25H0.0017777C-0.00222212 11.985 0.0017777 14.1713 0.0017777 15C0.0017777 22.0706 0.00177781 25.6069 2.34367 27.8025C4.68557 29.9981 8.4614 30 16.0011 30Z" fill="#D6D6D6"/>
<path d="M15.991 0H24.0106C31.5723 0 35.3541 2.23517e-07 37.702 2.0925C39.3939 3.59813 39.8679 5.7675 39.9999 9.375V11.25H0.00167847V9.375C0.133673 5.76562 0.607651 3.6 2.29958 2.0925C4.64747 2.23517e-07 8.4293 0 15.991 0ZM21.0007 21.0938C20.6029 21.0938 20.2214 21.2419 19.9401 21.5056C19.6588 21.7694 19.5008 22.127 19.5008 22.5C19.5008 22.873 19.6588 23.2306 19.9401 23.4944C20.2214 23.7581 20.6029 23.9062 21.0007 23.9062H24.0006C24.3984 23.9062 24.7799 23.7581 25.0612 23.4944C25.3425 23.2306 25.5005 22.873 25.5005 22.5C25.5005 22.127 25.3425 21.7694 25.0612 21.5056C24.7799 21.2419 24.3984 21.0938 24.0006 21.0938H21.0007ZM8.00132 21.0938C7.60352 21.0938 7.222 21.2419 6.94071 21.5056C6.65942 21.7694 6.50139 22.127 6.50139 22.5C6.50139 22.873 6.65942 23.2306 6.94071 23.4944C7.222 23.7581 7.60352 23.9062 8.00132 23.9062H16.001C16.3988 23.9062 16.7803 23.7581 17.0616 23.4944C17.3429 23.2306 17.5009 22.873 17.5009 22.5C17.5009 22.127 17.3429 21.7694 17.0616 21.5056C16.7803 21.2419 16.3988 21.0938 16.001 21.0938H8.00132Z" fill="#D6D6D6"/>
</svg>
