<svg width="81" height="81" viewBox="0 0 81 81" fill="none" xmlns="http://www.w3.org/2000/svg">
<rect width="81" height="81" rx="40.5" fill="#DDDDDD"/>
<path fill-rule="evenodd" clip-rule="evenodd" d="M30.5 28C30.5 25.3478 31.5535 22.8043 33.4289 20.9289C35.3043 19.0535 37.8478 18 40.5 18C43.1521 18 45.6957 19.0535 47.571 20.9289C49.4464 22.8043 50.5 25.3478 50.5 28C50.5 30.6521 49.4464 33.1957 47.571 35.071C45.6957 36.9464 43.1521 38 40.5 38C37.8478 38 35.3043 36.9464 33.4289 35.071C31.5535 33.1957 30.5 30.6521 30.5 28ZM30.5 43C27.1848 43 24.0053 44.3169 21.6611 46.6611C19.3169 49.0053 18 52.1848 18 55.5C18 57.4891 18.7901 59.3968 20.1967 60.8033C21.6032 62.2098 23.5108 63 25.5 63H55.5C57.4891 63 59.3968 62.2098 60.8033 60.8033C62.2098 59.3968 63 57.4891 63 55.5C63 52.1848 61.683 49.0053 59.3388 46.6611C56.9946 44.3169 53.8152 43 50.5 43H30.5Z" fill="#A6A6A6"/>
</svg>
