<svg width="40" height="30" viewBox="0 0 40 30" fill="none" xmlns="http://www.w3.org/2000/svg">
<path d="M3.33333 0H36.6667C38.4167 0 40 1.58333 40 3.33333V26.6667C40 28.4167 38.4167 30 36.6667 30H3.33333C1.58333 30 0 28.4167 0 26.6667V3.33333C0 1.58333 1.58333 0 3.33333 0ZM23.3333 5V6.66667H36.6667V5H23.3333ZM23.3333 8.33333V10H36.6667V8.33333H23.3333ZM23.3333 11.6667V13.3333H35V11.6667H23.3333ZM13.3333 18.1833C10 18.1833 3.33333 20 3.33333 23.3333V25H23.3333V23.3333C23.3333 20 16.6667 18.1833 13.3333 18.1833ZM13.3333 5C12.0073 5 10.7355 5.52678 9.7978 6.46447C8.86012 7.40215 8.33333 8.67392 8.33333 10C8.33333 11.3261 8.86012 12.5979 9.7978 13.5355C10.7355 14.4732 12.0073 15 13.3333 15C14.6594 15 15.9312 14.4732 16.8689 13.5355C17.8065 12.5979 18.3333 11.3261 18.3333 10C18.3333 8.67392 17.8065 7.40215 16.8689 6.46447C15.9312 5.52678 14.6594 5 13.3333 5Z" fill="#D6D6D6"/>
</svg>
